<svg version="1" xmlns="http://www.w3.org/2000/svg" width="1365.333" height="1365.333" viewBox="0 0 1024.000000 1024.000000"><path d="M490.9 41.4c-.2.2-6.5.7-13.9 1.1-7.4.4-13.7.8-14 1-.3.1-3.9.6-8 .9-15.7 1.3-53.5 8.6-75.5 14.5-8.1 2.2-32 9.9-41.5 13.4-19.7 7.4-56.2 24.4-71.5 33.4-2.7 1.6-5.7 3.2-6.5 3.6-3.2 1.4-20.5 12.6-32.2 20.7-42.6 29.6-84.9 70.4-116.1 112C75 290.9 44.5 353.6 29.1 412c-6.3 23.9-11.8 53.1-13.7 73.5-.3 3.3-.7 7-.9 8.3-2.4 14.7-2.4 74.6 0 93.7.2 1.6.7 6.1 1 9.9.4 3.8.9 7.9 1 9 .2 1.2 1.1 7.3 2 13.6.9 6.3 2 13.1 2.5 15 .5 1.9 1.1 5.2 1.4 7.2 1.3 8.3 9.9 39.6 15.9 57.9 38 114.4 118.9 213.2 225.1 274.4 11.7 6.8 11.9 6.9 19 6.9 3.9-.1 8.3-.7 9.6-1.4 9.1-4.7 14.2-12.6 14.2-21.9 0-11-3.7-15.7-20.3-25.6-62.3-37.2-111.5-83.3-149.3-140C97.7 734.4 73.2 669.6 64 601c-3.1-23.5-3.4-29.3-3.4-62 .1-32.7 1-44.1 5.5-71.5 7.3-44.8 20.6-86.3 40.3-126 36.2-73.4 90.6-134.7 158.6-179 51.7-33.8 111.6-57.4 169.5-66.9 19.5-3.2 22.5-3.6 44-5.5 11.7-1.1 56.4-1.1 68 0 5 .4 12.2 1.1 16 1.5 3.9.3 7.2.7 7.5.9.3.1 3.2.6 6.5 1 20.7 2.3 55.6 10.6 80.6 19.1 68 23.1 128.7 61.3 177.9 112.1 16.5 17 28.1 30.4 39 44.8 7.7 10.3 20.7 29.4 24.9 36.7 1 1.8 4.2 7.3 7.1 12.3 7.1 12.1 19.6 38.2 25.8 53.5 15.1 37.8 25.8 80.2 29.7 118 .3 3 .7 7.1 1 9 2.4 20.2 2.2 66.6-.5 89-.6 4.7-1.3 10.5-1.5 13-3.4 28.2-13 67.2-24 97-11.9 32.3-30.8 68.7-50.3 97-6.3 9.2-22.7 30.9-27.2 36-1.2 1.4-5.2 6-8.8 10.2-9 10.4-32.3 33.3-44.7 43.9-19.7 16.9-40.6 31.8-64.5 45.9-17.2 10.2-21.9 15.6-22.5 25.9-.5 7.3 1.4 12.4 6.5 17.6 10 10.2 20.7 9.6 40.4-2.2 15.8-9.5 51.6-34 54.6-37.3.3-.3 2.5-2.1 5-4s4.7-3.7 5-4c.3-.3 3.7-3.2 7.5-6.5 20.6-17.6 40.2-37.6 62.9-64.5 1.1-1.4 5.5-7 9.7-12.5 53.7-70.8 87.2-153 98.4-241 .4-2.8 1-7.7 1.5-11s.8-27.4.6-53.5c-.2-46.2-.3-48-3-65.5-9-58.7-23.4-105.1-47.8-154-26.1-52.2-57.2-94.5-100.8-137.1-49.4-48.2-110.7-86.5-177-110.7-37.3-13.7-84.3-24.1-122-27.2-4.1-.3-9.3-.8-11.5-1.1-4.7-.6-57.1-1.5-57.6-1z"/><path d="M508.8 136.5c-.2.1-8.6.5-18.8.9-10.2.3-20.3.9-22.5 1.1-68.8 9.1-128 31-181 66.9-43.4 29.4-84.5 70.6-111.7 112.1-30 45.9-51.5 99.1-60.7 150.3-2.7 14.9-3.8 24.1-5.6 46.2-.8 8.9-.7 48.5 0 56.2 2.5 26.5 5.4 44.7 10.6 66.8 7 29.5 16.7 55.7 32.3 87 22 44.1 52.9 83.9 93.5 120.6 17.6 16 50.8 39.6 68.9 49 7.6 4 9.8 4.7 14.5 4.6 21-.2 31.8-24.8 17.3-39.4-1.5-1.4-6.1-4.8-10.4-7.6-4.2-2.7-12.4-7.9-18.1-11.6-66.9-43.2-118-109.5-143.6-186-8.3-24.8-13.7-50.3-15.9-74.1-1.9-20.4-2.5-52.5-1.2-68 3.7-43.8 15.8-87.8 35.1-127 13-26.4 25.2-45.7 43.1-68.2 10-12.5 40-42.5 52.4-52.5 44.9-36 95.3-60 151-71.7 28.4-6 47.2-7.8 78.1-7.5 21.1.2 33.4 1 45.4 2.9 1.7.3 5 .8 7.5 1.1 9.5 1.2 33.1 6.6 46 10.5 30.6 9.1 64.8 24.9 90.5 41.6 46.8 30.6 85.5 70.8 113.7 118.1 26.7 44.9 43.1 94.8 48.3 146.6 1.2 12.7 1.4 64.5.2 71.1-.3 1.6-1.1 6.8-1.7 11.5-8.6 66.1-35.9 128.5-78.8 180.3-25.5 30.8-58.8 59.2-94.6 80.7-16.1 9.6-20 14.7-20 26 0 8 2.9 13.9 9.1 18.6 6.1 4.7 13.5 6.1 20 4 13.7-4.6 48.7-28 73.3-49.1 53.4-45.9 92.7-102.3 117-168 10.7-28.8 19.4-64.6 22.4-91.9 2.6-24.1 2.7-77.5.1-92.6-.2-1.4-.8-5.9-1.4-10-3.5-25.9-8.2-46.1-16.7-72.3-29.4-90-93.1-169.6-175.5-219.2-45.1-27.1-93-44.8-143.4-52.8-20.7-3.4-22.4-3.5-45.5-4.2-10.7-.3-20.3-.8-21.2-.9-.9-.2-1.8-.3-2-.1z"/><path d="M503.7 231.6c-.1.1-5.8.4-12.6.8s-12.7.8-13 1c-.3.2-3.5.7-7.1 1-3.6.4-12.1 1.8-19 3.2-46.9 9.3-91.3 29.7-131 60.2-13 10-45.1 42.8-55.2 56.2-29 39-47.2 79-56.9 125.4-4.4 21.5-5 28.6-5 60.7 0 32.7.6 40.5 4.7 60.4 12.4 61 40.2 113.4 83 157.1 17.6 17.9 31.7 29.4 52.9 43.4 13.9 9.1 20.8 12.6 26.8 13.5 23.7 3.6 36.9-26.8 17.8-41.2-2.5-1.9-11.3-7.9-19.6-13.3-50.7-33.2-87.5-81.2-106.5-139.2-4.9-14.8-9.8-37.4-10.8-50.1-1.5-19.2-.5-62.6 1.8-74.5 8.5-44.4 26.1-83.4 52.7-117.1 10.3-12.9 33.5-35.9 46-45.4 27.2-20.7 56-35.2 87.6-44.2 24.2-7 45.5-9.9 71.2-9.9 59.4 0 111.9 17.6 160 53.9 13.4 10.1 34.6 30.6 44.8 43.5 28.4 35.7 46 75.2 54.2 121.6 2.2 12.6 2.8 20.5 2.8 39.9.1 30.1-2.4 49.9-9.4 74.4-11.8 41.4-35 80.9-65.4 111.6-16.8 17-29.7 27.2-51 40.5-14.1 8.8-18.1 12.8-20.1 19.9-2.6 8.9-.2 17.2 7.2 24.4 6.9 6.7 17.5 7.3 28.8 1.6 13.9-7 44.8-29.2 55.7-39.8.9-.9 3.6-3.5 6-5.7C769.2 724 801 668 814.4 608c2.6-11.8 5.1-27.8 6.1-38.5.6-7.2.7-51.9.1-55.5-.2-1.4-.7-5.9-1.1-10-3.2-36-20.8-87.6-41.9-122.3-25.9-42.6-66.9-83-109.8-108.1-33.1-19.3-75.9-34.4-110.3-38.6-4.9-.6-10-1.3-11.3-1.5-5.4-.9-41.7-2.5-42.5-1.9z"/><path d="M489.5 328.1c-54.9 5.4-108.7 35-144.4 79.4-20.1 25-35.2 56.8-42.5 89.6-3.4 15.6-3.6 17.3-3.7 42.9-.1 25 .8 34.1 5.1 51 13.7 54.3 44 97.5 90.5 128.9 13.7 9.2 18.6 11.4 26.1 11.3 7.6 0 12.2-1.9 17.2-7.1 4.8-5 6.7-10.9 5.9-19.2-.8-8.8-3.2-11.6-18.7-22.1-21.5-14.4-35.4-27.5-48.1-45.1-15-20.9-23.9-42-28.5-67.2-1.9-9.9-2.6-39.1-1.3-50.5 7.7-66.7 59.2-124.5 125.2-140.5 13.6-3.3 21.1-4 42.7-3.9 27.1 0 44.1 3.8 66.9 14.5 21.1 10 35.9 20.6 51.3 36.8 47.9 50.4 59 125.7 27.7 188.6-7.8 15.6-16.9 28.4-29.9 41.6-11.8 12-16.1 15.5-32.5 26.3-15.5 10.4-17.6 13.5-17.6 25.8 0 6.6 1.1 9.5 5.2 14.2 4.9 5.7 9.6 7.6 18.1 7.6 8.2 0 11.5-1.4 24.8-10.3 33.1-22.1 58.7-51.4 75.6-86.2 8.1-16.8 13-30.5 16.8-47.6 3.8-17.2 4.5-25.1 4.2-50.4-.3-18.9-.7-24.9-2.5-33.5-2.8-13.3-5.5-23.6-8.8-32.5-1.4-3.9-2.7-7.9-3.1-9-1.5-5.3-14.3-29.1-21-39-10-14.8-13.4-18.9-28.1-33.6-28.5-28.4-62-47.2-100.6-56.2-11.1-2.6-13.3-3-26-4.6-8.5-1.1-35-1-46 0z"/><path d="M503.9 422.4c-.2.2-3.6.7-7.5 1-35.6 3.3-72 29-89.7 63.4-10.9 21-15.6 46.9-12.6 68.7 3.1 22.5 13.4 45.9 26.8 60.9 11.9 13.5 28.8 26.9 37.7 29.9 7 2.4 16.2 1 22.1-3.3 5.5-4.1 9.3-11.7 9.3-18.7 0-9.6-3.6-15.1-14.5-22.6-3.3-2.2-8.6-6.6-11.9-9.6-15.7-15-23.4-33.3-22.3-53.6.6-11.8 2.5-19.4 7.3-29.1 9.1-18.4 25.9-32 46.4-37.3 11.3-3 28.7-2.4 39.5 1.3 29.2 10 48.7 37 48.7 67.1-.1 25.6-10.9 44.7-34.7 61.6-7.3 5.2-9.5 7.4-11.5 11.4-6.2 12.4-.8 26.9 12 32.3 5.5 2.3 14.7 2 20-.8 25.2-12.9 47.1-39.4 56.4-68.1 7.8-24.2 7.2-53.5-1.5-76.9-11.2-30.1-36.6-56.4-66.7-69.1-6.5-2.7-18.9-6.2-26.2-7.4-4.5-.7-26.5-1.6-27.1-1.1z"/><path d="M505.9 518.3c-15 5.6-21.4 19.8-14.9 32.8 5.1 10 15.5 15.2 25.7 12.9 6.6-1.4 13-6.2 16.3-12 3.1-5.7 3.4-15.6.6-21-5.5-10.6-18-16.3-27.7-12.7z"/></svg>